<svg viewBox="0 0 6 5" fill="none" xmlns="http://www.w3.org/2000/svg">
<path d="M0.783176 5H4.42716C4.63486 4.99976 4.83398 4.91712 4.98081 4.77022C5.12764 4.62332 5.21019 4.42416 5.21034 4.21646V2.39483C5.21034 2.35889 5.19606 2.32443 5.17065 2.29902C5.14524 2.27361 5.11077 2.25933 5.07484 2.25933C5.0389 2.25933 5.00444 2.27361 4.97903 2.29902C4.95362 2.32443 4.93934 2.35889 4.93934 2.39483V4.21646C4.9392 4.35225 4.88519 4.48245 4.78917 4.57847C4.69315 4.67449 4.56295 4.7285 4.42716 4.72864H0.783176C0.647367 4.72854 0.517147 4.67455 0.421115 4.57852C0.325083 4.48249 0.271091 4.35227 0.270995 4.21646V1.39612C0.271139 1.26033 0.325147 1.13014 0.421168 1.03411C0.51719 0.938092 0.647381 0.884084 0.783176 0.883941H2.60517C2.6411 0.883941 2.67557 0.869665 2.70098 0.844255C2.72639 0.818844 2.74067 0.784379 2.74067 0.748443C2.74067 0.712507 2.72639 0.678043 2.70098 0.652632C2.67557 0.627221 2.6411 0.612946 2.60517 0.612946H0.783176C0.575538 0.613185 0.376473 0.695774 0.229651 0.842597C0.0828288 0.989419 0.000239077 1.18848 0 1.39612V4.21646C9.56551e-05 4.42417 0.0826278 4.62336 0.229471 4.77027C0.376314 4.91718 0.575461 4.99981 0.783176 5Z" fill="black"/>
<path d="M2.11593 2.22916C2.11255 2.23359 2.10947 2.23824 2.10672 2.24308C2.09884 2.25244 2.09228 2.26283 2.08721 2.27397L2.0863 2.27541L1.74322 3.19192C1.73172 3.23978 1.73117 3.28962 1.74161 3.33773C1.75205 3.38584 1.7732 3.43097 1.80351 3.46976C1.83381 3.50855 1.87247 3.54001 1.91662 3.56178C1.96077 3.58356 2.00926 3.59509 2.05848 3.59552C2.08903 3.59548 2.11943 3.59123 2.14881 3.58288L2.48467 3.45641C2.5157 3.44203 2.54015 3.41645 2.5531 3.38479C2.56605 3.35313 2.56656 3.31775 2.55451 3.28574C2.54246 3.25373 2.51875 3.22746 2.48813 3.2122C2.45752 3.19694 2.42227 3.19383 2.38946 3.20348L2.06535 3.32561C2.05709 3.32667 2.04871 3.32565 2.04095 3.32266C2.03319 3.31966 2.0263 3.31478 2.0209 3.30845C2.01151 3.2994 2.00439 3.28826 2.00013 3.27593L2.26588 2.56737L2.91103 3.21234C2.92361 3.22493 2.93856 3.23492 2.955 3.24173C2.97145 3.24855 2.98907 3.25205 3.00687 3.25205C3.02467 3.25205 3.0423 3.24855 3.05875 3.24173C3.07519 3.23492 3.09013 3.22493 3.10271 3.21234L5.07339 1.24148L5.12542 1.18963C5.25611 1.05894 5.32953 0.881688 5.32953 0.696867C5.32953 0.512047 5.25611 0.334796 5.12542 0.204108C4.99474 0.0734197 4.81748 0 4.63266 0C4.44784 0 4.27059 0.0734197 4.1399 0.204108L4.08823 0.255777C4.07565 0.268345 4.06566 0.283271 4.05885 0.299701C4.05204 0.316131 4.04853 0.333743 4.04853 0.351529C4.04853 0.369315 4.05204 0.386927 4.05885 0.403357C4.06566 0.419787 4.07565 0.434713 4.08823 0.447281L4.78614 1.14518L3.00787 2.92454L2.40535 2.32239L3.88354 0.844199C3.89686 0.831794 3.90753 0.816835 3.91494 0.800214C3.92234 0.783593 3.92633 0.765651 3.92665 0.747457C3.92697 0.729264 3.92362 0.711192 3.91681 0.69432C3.90999 0.677449 3.89985 0.662122 3.88698 0.649256C3.87412 0.636389 3.85879 0.626246 3.84192 0.619431C3.82505 0.612616 3.80697 0.609269 3.78878 0.60959C3.77059 0.609911 3.75264 0.613894 3.73602 0.621299C3.7194 0.628705 3.70444 0.639383 3.69204 0.652695L2.1172 2.22664L2.11593 2.22916ZM4.93428 0.396334C5.00634 0.468679 5.05006 0.564462 5.05752 0.666295C5.06498 0.768128 5.03568 0.86926 4.97493 0.951332L4.37874 0.355142C4.46081 0.294326 4.56196 0.264964 4.66384 0.27239C4.76571 0.279815 4.86154 0.323537 4.93392 0.395611L4.93428 0.396334Z" fill="black"/>
</svg>
