<svg viewBox="0 0 2 2" fill="none" xmlns="http://www.w3.org/2000/svg">
<path d="M0.0672682 2C0.0584663 2.00005 0.0497409 1.99836 0.0415924 1.99503C0.0334439 1.99171 0.0260324 1.9868 0.0197831 1.9806C0.0135145 1.97439 0.008539 1.96699 0.00514357 1.95884C0.00174814 1.95069 0 1.94195 0 1.93312C0 1.92429 0.00174814 1.91555 0.00514357 1.9074C0.008539 1.89925 0.0135145 1.89185 0.0197831 1.88563L1.88575 0.019669C1.89834 0.00707514 1.91542 -3.25041e-10 1.93323 0C1.95104 3.25041e-10 1.96812 0.00707514 1.98072 0.019669C1.99331 0.0322628 2.00039 0.0493437 2.00039 0.0671541C2.00039 0.0849645 1.99331 0.102045 1.98072 0.114639L0.114753 1.9806C0.108504 1.9868 0.101093 1.99171 0.0929441 1.99503C0.0847955 1.99836 0.0760701 2.00005 0.0672682 2Z" fill="white"/>
<path d="M1.93674 2C1.92794 2.00005 1.91922 1.99836 1.91107 1.99503C1.90292 1.99171 1.89551 1.9868 1.88926 1.9806L0.0199513 0.114639C0.00735744 0.102045 0.000282288 0.0849645 0.000282288 0.0671541C0.000282288 0.0493437 0.00735744 0.0322628 0.0199513 0.019669C0.0325451 0.00707514 0.049626 0 0.0674364 0C0.0852468 0 0.102328 0.00707514 0.114921 0.019669L1.98089 1.88563C1.98715 1.89185 1.99213 1.89925 1.99553 1.9074C1.99892 1.91555 2.00067 1.92429 2.00067 1.93312C2.00067 1.94195 1.99892 1.95069 1.99553 1.95884C1.99213 1.96699 1.98715 1.97439 1.98089 1.9806C1.9691 1.99233 1.95336 1.99925 1.93674 2Z" fill="white"/>
</svg>
